{
	"asset": {
		"generator": "Tilt Brush 20.1.86397d60c",
		"version": "1.1",
		"copyright": "Unknown."
	},
	"buffers": {
		"sketch": {
			"byteLength": 2416872,
			"type": "arraybuffer",
			"uri": "sketch.bin"
		}
	},
	"accessors": {
		"accessor_position_MatteHull_79348357-432d-4746-8e29-0e25c112e3aa_0_0": {
			"bufferView": "vec3BufferView",
			"byteOffset": 0,
			"byteStride": 12,
			"componentType": 5126,
			"count": 42288,
			"max": [ 0.2413315, 1.056149, 0.04796233 ],
			"min": [ -0.1915047, 0.8030066, -0.3943323 ],
			"type": "VEC3"
		 },
		"accessor_normal_MatteHull_79348357-432d-4746-8e29-0e25c112e3aa_0_0": {
			"bufferView": "vec3BufferView",
			"byteOffset": 507456,
			"byteStride": 12,
			"componentType": 5126,
			"count": 42288,
			"max": [ 0.99994, 1, 0.99999 ],
			"min": [ -0.9999197, -1, -0.9996811 ],
			"type": "VEC3"
		 },
		"accessor_color_MatteHull_79348357-432d-4746-8e29-0e25c112e3aa_0_0": {
			"bufferView": "vec4BufferView",
			"byteOffset": 0,
			"byteStride": 16,
			"componentType": 5126,
			"count": 42288,
			"max": [ 0.08627451, 0.08627451, 0.08627451, 1 ],
			"min": [ 0.08627451, 0.08627451, 0.08627451, 1 ],
			"type": "VEC4"
		 },
		"accessor_uv0_MatteHull_79348357-432d-4746-8e29-0e25c112e3aa_0_0": {
			"bufferView": "vec3BufferView",
			"byteOffset": 1014912,
			"byteStride": 12,
			"componentType": 5126,
			"count": 42288,
			"max": [ 0, 1, 0.0347326 ],
			"min": [ 0, 1, 0.0005 ],
			"type": "VEC3"
		 },
		"accessor_indices_0_MatteHull_79348357-432d-4746-8e29-0e25c112e3aa_0_0": {
			"bufferView": "ushortBufferView",
			"byteOffset": 0,
			"byteStride": 0,
			"componentType": 5123,
			"count": 42288,
			"max": [ 42287 ],
			"min": [ 0 ],
			"type": "SCALAR"
		 },
		"accessor_position_DiamondHull_c8313697-2563-47fc-832e-290f4c04b901_0_0": {
			"bufferView": "vec3BufferView",
			"byteOffset": 1522368,
			"byteStride": 12,
			"componentType": 5126,
			"count": 2124,
			"max": [ 0.1509852, 1.003032, -0.1174273 ],
			"min": [ -0.1365486, 0.7716041, -0.2699486 ],
			"type": "VEC3"
		 },
		"accessor_normal_DiamondHull_c8313697-2563-47fc-832e-290f4c04b901_0_0": {
			"bufferView": "vec3BufferView",
			"byteOffset": 1547856,
			"byteStride": 12,
			"componentType": 5126,
			"count": 2124,
			"max": [ 0.9970261, 0.9993123, 0.9964335 ],
			"min": [ -0.9990896, -0.9920734, -0.9973807 ],
			"type": "VEC3"
		 },
		"accessor_color_DiamondHull_c8313697-2563-47fc-832e-290f4c04b901_0_0": {
			"bufferView": "vec4BufferView",
			"byteOffset": 676608,
			"byteStride": 16,
			"componentType": 5126,
			"count": 2124,
			"max": [ 0.03529412, 0.4941176, 0.9294118, 1 ],
			"min": [ 0.03529412, 0.4941176, 0.9294118, 1 ],
			"type": "VEC4"
		 },
		"accessor_uv0_DiamondHull_c8313697-2563-47fc-832e-290f4c04b901_0_0": {
			"bufferView": "vec3BufferView",
			"byteOffset": 1573344,
			"byteStride": 12,
			"componentType": 5126,
			"count": 2124,
			"max": [ 0, 1, 0.02074702 ],
			"min": [ 0, 1, 0.01326637 ],
			"type": "VEC3"
		 },
		"accessor_indices_0_DiamondHull_c8313697-2563-47fc-832e-290f4c04b901_0_0": {
			"bufferView": "ushortBufferView",
			"byteOffset": 84576,
			"byteStride": 0,
			"componentType": 5123,
			"count": 2124,
			"max": [ 2123 ],
			"min": [ 0 ],
			"type": "SCALAR"
		 },
		"accessor_position_Electricity_f6e85de3-6dcc-4e7f-87fd-cee8c3d25d51_0_0": {
			"bufferView": "vec3BufferView",
			"byteOffset": 1598832,
			"byteStride": 12,
			"componentType": 5126,
			"count": 228,
			"max": [ 0.1394098, 0.9957852, -0.1419663 ],
			"min": [ -0.1218994, 0.793807, -0.2578197 ],
			"type": "VEC3"
		 },
		"accessor_normal_Electricity_f6e85de3-6dcc-4e7f-87fd-cee8c3d25d51_0_0": {
			"bufferView": "vec3BufferView",
			"byteOffset": 1601568,
			"byteStride": 12,
			"componentType": 5126,
			"count": 228,
			"max": [ 0.9910751, 0.02082084, 0.6241834 ],
			"min": [ -0.9573876, -0.6726441, -0.7563583 ],
			"type": "VEC3"
		 },
		"accessor_color_Electricity_f6e85de3-6dcc-4e7f-87fd-cee8c3d25d51_0_0": {
			"bufferView": "vec4BufferView",
			"byteOffset": 710592,
			"byteStride": 16,
			"componentType": 5126,
			"count": 228,
			"max": [ 0.3254902, 0.6588235, 0.972549, 1 ],
			"min": [ 0.3254902, 0.6588235, 0.972549, 1 ],
			"type": "VEC4"
		 },
		"accessor_tangent_Electricity_f6e85de3-6dcc-4e7f-87fd-cee8c3d25d51_0_0": {
			"bufferView": "vec4BufferView",
			"byteOffset": 714240,
			"byteStride": 16,
			"componentType": 5126,
			"count": 228,
			"max": [ 0.2290684, -0.7130145, 0.3496394, 1 ],
			"min": [ -0.6392281, -0.9985133, -0.3198418, 1 ],
			"type": "VEC4"
		 },
		"accessor_uv0_Electricity_f6e85de3-6dcc-4e7f-87fd-cee8c3d25d51_0_0": {
			"bufferView": "vec2BufferView",
			"byteOffset": 0,
			"byteStride": 8,
			"componentType": 5126,
			"count": 228,
			"max": [ 1, 1 ],
			"min": [ 0, 0 ],
			"type": "VEC2"
		 },
		"accessor_uv1_Electricity_f6e85de3-6dcc-4e7f-87fd-cee8c3d25d51_0_0": {
			"bufferView": "vec3BufferView",
			"byteOffset": 1604304,
			"byteStride": 12,
			"componentType": 5126,
			"count": 228,
			"max": [ 0.00047039, 9.39909E-05, 0.0009441493 ],
			"min": [ -0.00047039, -9.39909E-05, -0.0009441493 ],
			"type": "VEC3"
		 },
		"accessor_indices_0_Electricity_f6e85de3-6dcc-4e7f-87fd-cee8c3d25d51_0_0": {
			"bufferView": "ushortBufferView",
			"byteOffset": 88824,
			"byteStride": 0,
			"componentType": 5123,
			"count": 648,
			"max": [ 227 ],
			"min": [ 0 ],
			"type": "SCALAR"
		 }
	},
	"bufferViews": {
		"ushortBufferView": {
			"buffer": "sketch",
			"byteLength": 90120,
			"byteOffset": 0,
			"target": 34963
		},
		"vec2BufferView": {
			"buffer": "sketch",
			"byteLength": 1824,
			"byteOffset": 90120,
			"target": 34962
		},
		"vec3BufferView": {
			"buffer": "sketch",
			"byteLength": 1607040,
			"byteOffset": 91944,
			"target": 34962
		},
		"vec4BufferView": {
			"buffer": "sketch",
			"byteLength": 717888,
			"byteOffset": 1698984,
			"target": 34962
		}
	},
	"meshes": {
		"mesh_MatteHull_79348357-432d-4746-8e29-0e25c112e3aa_0_0": {
			"name": "mesh_MatteHull_79348357-432d-4746-8e29-0e25c112e3aa_0_0",
			"primitives": [
				{
					"attributes": {
						"POSITION": "accessor_position_MatteHull_79348357-432d-4746-8e29-0e25c112e3aa_0_0",
						"NORMAL": "accessor_normal_MatteHull_79348357-432d-4746-8e29-0e25c112e3aa_0_0",
						"COLOR": "accessor_color_MatteHull_79348357-432d-4746-8e29-0e25c112e3aa_0_0",
						"TEXCOORD_0": "accessor_uv0_MatteHull_79348357-432d-4746-8e29-0e25c112e3aa_0_0"
					},
					"indices": "accessor_indices_0_MatteHull_79348357-432d-4746-8e29-0e25c112e3aa_0_0",
					"material": "material_79348357-432d-4746-8e29-0e25c112e3aa",
					"mode": 4
				}
			]
		},
		"mesh_DiamondHull_c8313697-2563-47fc-832e-290f4c04b901_0_0": {
			"name": "mesh_DiamondHull_c8313697-2563-47fc-832e-290f4c04b901_0_0",
			"primitives": [
				{
					"attributes": {
						"POSITION": "accessor_position_DiamondHull_c8313697-2563-47fc-832e-290f4c04b901_0_0",
						"NORMAL": "accessor_normal_DiamondHull_c8313697-2563-47fc-832e-290f4c04b901_0_0",
						"COLOR": "accessor_color_DiamondHull_c8313697-2563-47fc-832e-290f4c04b901_0_0",
						"TEXCOORD_0": "accessor_uv0_DiamondHull_c8313697-2563-47fc-832e-290f4c04b901_0_0"
					},
					"indices": "accessor_indices_0_DiamondHull_c8313697-2563-47fc-832e-290f4c04b901_0_0",
					"material": "material_c8313697-2563-47fc-832e-290f4c04b901",
					"mode": 4
				}
			]
		},
		"mesh_Electricity_f6e85de3-6dcc-4e7f-87fd-cee8c3d25d51_0_0": {
			"name": "mesh_Electricity_f6e85de3-6dcc-4e7f-87fd-cee8c3d25d51_0_0",
			"primitives": [
				{
					"attributes": {
						"POSITION": "accessor_position_Electricity_f6e85de3-6dcc-4e7f-87fd-cee8c3d25d51_0_0",
						"NORMAL": "accessor_normal_Electricity_f6e85de3-6dcc-4e7f-87fd-cee8c3d25d51_0_0",
						"COLOR": "accessor_color_Electricity_f6e85de3-6dcc-4e7f-87fd-cee8c3d25d51_0_0",
						"TANGENT": "accessor_tangent_Electricity_f6e85de3-6dcc-4e7f-87fd-cee8c3d25d51_0_0",
						"TEXCOORD_0": "accessor_uv0_Electricity_f6e85de3-6dcc-4e7f-87fd-cee8c3d25d51_0_0",
						"TEXCOORD_1": "accessor_uv1_Electricity_f6e85de3-6dcc-4e7f-87fd-cee8c3d25d51_0_0"
					},
					"indices": "accessor_indices_0_Electricity_f6e85de3-6dcc-4e7f-87fd-cee8c3d25d51_0_0",
					"material": "material_f6e85de3-6dcc-4e7f-87fd-cee8c3d25d51",
					"mode": 4
				}
			]
		}
	},
	"shaders": {
		"vertex_79348357-432d-4746-8e29-0e25c112e3aa": {
			"type": 35633,
			"uri": "https://www.tiltbrush.com/shaders/brushes/MatteHull-79348357-432d-4746-8e29-0e25c112e3aa/MatteHull-79348357-432d-4746-8e29-0e25c112e3aa-v10.0-vertex.glsl"
		},
		"fragment_79348357-432d-4746-8e29-0e25c112e3aa": {
			"type": 35632,
			"uri": "https://www.tiltbrush.com/shaders/brushes/MatteHull-79348357-432d-4746-8e29-0e25c112e3aa/MatteHull-79348357-432d-4746-8e29-0e25c112e3aa-v10.0-fragment.glsl"
		},
		"vertex_c8313697-2563-47fc-832e-290f4c04b901": {
			"type": 35633,
			"uri": "https://www.tiltbrush.com/shaders/brushes/DiamondHull-c8313697-2563-47fc-832e-290f4c04b901/DiamondHull-c8313697-2563-47fc-832e-290f4c04b901-v10.0-vertex.glsl"
		},
		"fragment_c8313697-2563-47fc-832e-290f4c04b901": {
			"type": 35632,
			"uri": "https://www.tiltbrush.com/shaders/brushes/DiamondHull-c8313697-2563-47fc-832e-290f4c04b901/DiamondHull-c8313697-2563-47fc-832e-290f4c04b901-v10.0-fragment.glsl"
		},
		"vertex_f6e85de3-6dcc-4e7f-87fd-cee8c3d25d51": {
			"type": 35633,
			"uri": "https://www.tiltbrush.com/shaders/brushes/Electricity-f6e85de3-6dcc-4e7f-87fd-cee8c3d25d51/Electricity-f6e85de3-6dcc-4e7f-87fd-cee8c3d25d51-v10.0-vertex.glsl"
		},
		"fragment_f6e85de3-6dcc-4e7f-87fd-cee8c3d25d51": {
			"type": 35632,
			"uri": "https://www.tiltbrush.com/shaders/brushes/Electricity-f6e85de3-6dcc-4e7f-87fd-cee8c3d25d51/Electricity-f6e85de3-6dcc-4e7f-87fd-cee8c3d25d51-v10.0-fragment.glsl"
		}
	},
	"programs": {
		"program_79348357-432d-4746-8e29-0e25c112e3aa": {
			"attributes": [
				"a_position",
				"a_normal",
				"a_color",
				"a_texcoord0"				
			],
			"vertexShader": "vertex_79348357-432d-4746-8e29-0e25c112e3aa",
			"fragmentShader": "fragment_79348357-432d-4746-8e29-0e25c112e3aa"
		},
		"program_c8313697-2563-47fc-832e-290f4c04b901": {
			"attributes": [
				"a_position",
				"a_normal",
				"a_color",
				"a_texcoord0"				
			],
			"vertexShader": "vertex_c8313697-2563-47fc-832e-290f4c04b901",
			"fragmentShader": "fragment_c8313697-2563-47fc-832e-290f4c04b901"
		},
		"program_f6e85de3-6dcc-4e7f-87fd-cee8c3d25d51": {
			"attributes": [
				"a_position",
				"a_normal",
				"a_color",
				"a_tangent",
				"a_texcoord0",
				"a_texcoord1"				
			],
			"vertexShader": "vertex_f6e85de3-6dcc-4e7f-87fd-cee8c3d25d51",
			"fragmentShader": "fragment_f6e85de3-6dcc-4e7f-87fd-cee8c3d25d51"
		}
	},
	"techniques": {
		"technique_79348357-432d-4746-8e29-0e25c112e3aa": {
			"program": "program_79348357-432d-4746-8e29-0e25c112e3aa",
			"parameters": {
				"position": {
					"type": 35665,
					"semantic": "POSITION"
				},
				"normal": {
					"type": 35665,
					"semantic": "NORMAL"
				},
				"color": {
					"type": 35666,
					"semantic": "COLOR"
				},
				"texcoord0": {
					"type": 35665,
					"semantic": "TEXCOORD_0"
				},
				"modelViewMatrix": {
					"type": 35676,
					"semantic": "MODELVIEW"
				},
				"projectionMatrix": {
					"type": 35676,
					"semantic": "PROJECTION"
				},
				"normalMatrix": {
					"type": 35675,
					"semantic": "MODELVIEWINVERSETRANSPOSE"
				},
				"SceneLight_0_matrix": {
					"type": 35676,
					"semantic": "MODELVIEW",
					"node": "node_SceneLight_0_-1098"
				},
				"SceneLight_0_color": {
					"type": 35666,
					"node": "node_SceneLight_0_-1098"
				},
				"SceneLight_1_matrix": {
					"type": 35676,
					"semantic": "MODELVIEW",
					"node": "node_SceneLight_1_-1104"
				},
				"SceneLight_1_color": {
					"type": 35666,
					"node": "node_SceneLight_1_-1104"
				},
				"ambient_light_color": {
					"type": 35666
				},
				"Cutoff": {
					"type": 5126
				},
				"Color": {
					"type": 35666
				}				
			},
			"attributes": {
				"a_position": "position",
				"a_normal": "normal",
				"a_color": "color",
				"a_texcoord0": "texcoord0"				
			},
			"uniforms": {
				"u_modelViewMatrix": "modelViewMatrix",
				"u_projectionMatrix": "projectionMatrix",
				"u_normalMatrix": "normalMatrix",
				"u_SceneLight_0_matrix": "SceneLight_0_matrix",
				"u_SceneLight_0_color": "SceneLight_0_color",
				"u_SceneLight_1_matrix": "SceneLight_1_matrix",
				"u_SceneLight_1_color": "SceneLight_1_color",
				"u_ambient_light_color": "ambient_light_color",
				"u_Cutoff": "Cutoff",
				"u_Color": "Color"				
			},
			"states": {
				"enable": [
					2929
				],
				"functions": {
					"depthMask": [true]
				}
			}
		},
		"technique_c8313697-2563-47fc-832e-290f4c04b901": {
			"program": "program_c8313697-2563-47fc-832e-290f4c04b901",
			"parameters": {
				"position": {
					"type": 35665,
					"semantic": "POSITION"
				},
				"normal": {
					"type": 35665,
					"semantic": "NORMAL"
				},
				"color": {
					"type": 35666,
					"semantic": "COLOR"
				},
				"texcoord0": {
					"type": 35665,
					"semantic": "TEXCOORD_0"
				},
				"modelViewMatrix": {
					"type": 35676,
					"semantic": "MODELVIEW"
				},
				"projectionMatrix": {
					"type": 35676,
					"semantic": "PROJECTION"
				},
				"normalMatrix": {
					"type": 35675,
					"semantic": "MODELVIEWINVERSETRANSPOSE"
				},
				"SceneLight_0_matrix": {
					"type": 35676,
					"semantic": "MODELVIEW",
					"node": "node_SceneLight_0_-1098"
				},
				"SceneLight_0_color": {
					"type": 35666,
					"node": "node_SceneLight_0_-1098"
				},
				"SceneLight_1_matrix": {
					"type": 35676,
					"semantic": "MODELVIEW",
					"node": "node_SceneLight_1_-1104"
				},
				"SceneLight_1_color": {
					"type": 35666,
					"node": "node_SceneLight_1_-1104"
				},
				"ambient_light_color": {
					"type": 35666
				},
				"MainTex_TexelSize": {
					"type": 35666
				},
				"MainTex": {
					"type": 35678
				}				
			},
			"attributes": {
				"a_position": "position",
				"a_normal": "normal",
				"a_color": "color",
				"a_texcoord0": "texcoord0"				
			},
			"uniforms": {
				"u_modelViewMatrix": "modelViewMatrix",
				"u_projectionMatrix": "projectionMatrix",
				"u_normalMatrix": "normalMatrix",
				"u_SceneLight_0_matrix": "SceneLight_0_matrix",
				"u_SceneLight_0_color": "SceneLight_0_color",
				"u_SceneLight_1_matrix": "SceneLight_1_matrix",
				"u_SceneLight_1_color": "SceneLight_1_color",
				"u_ambient_light_color": "ambient_light_color",
				"u_MainTex_TexelSize": "MainTex_TexelSize",
				"u_MainTex": "MainTex"				
			},
			"states": {
				"enable": [
					2929,
					3042
				],
				"functions": {
					"blendFuncSeparate": [1, 1, 1, 1],
					"depthMask": [false]
				}
			}
		},
		"technique_f6e85de3-6dcc-4e7f-87fd-cee8c3d25d51": {
			"program": "program_f6e85de3-6dcc-4e7f-87fd-cee8c3d25d51",
			"parameters": {
				"position": {
					"type": 35665,
					"semantic": "POSITION"
				},
				"normal": {
					"type": 35665,
					"semantic": "NORMAL"
				},
				"color": {
					"type": 35666,
					"semantic": "COLOR"
				},
				"tangent": {
					"type": 35666,
					"semantic": "TANGENT"
				},
				"texcoord0": {
					"type": 35664,
					"semantic": "TEXCOORD_0"
				},
				"texcoord1": {
					"type": 35665,
					"semantic": "TEXCOORD_1"
				},
				"modelViewMatrix": {
					"type": 35676,
					"semantic": "MODELVIEW"
				},
				"projectionMatrix": {
					"type": 35676,
					"semantic": "PROJECTION"
				},
				"normalMatrix": {
					"type": 35675,
					"semantic": "MODELVIEWINVERSETRANSPOSE"
				},
				"SceneLight_0_matrix": {
					"type": 35676,
					"semantic": "MODELVIEW",
					"node": "node_SceneLight_0_-1098"
				},
				"SceneLight_0_color": {
					"type": 35666,
					"node": "node_SceneLight_0_-1098"
				},
				"SceneLight_1_matrix": {
					"type": 35676,
					"semantic": "MODELVIEW",
					"node": "node_SceneLight_1_-1104"
				},
				"SceneLight_1_color": {
					"type": 35666,
					"node": "node_SceneLight_1_-1104"
				},
				"ambient_light_color": {
					"type": 35666
				},
				"DisplacementIntensity": {
					"type": 5126
				},
				"EmissionGain": {
					"type": 5126
				}				
			},
			"attributes": {
				"a_position": "position",
				"a_normal": "normal",
				"a_color": "color",
				"a_tangent": "tangent",
				"a_texcoord0": "texcoord0",
				"a_texcoord1": "texcoord1"				
			},
			"uniforms": {
				"u_modelViewMatrix": "modelViewMatrix",
				"u_projectionMatrix": "projectionMatrix",
				"u_normalMatrix": "normalMatrix",
				"u_SceneLight_0_matrix": "SceneLight_0_matrix",
				"u_SceneLight_0_color": "SceneLight_0_color",
				"u_SceneLight_1_matrix": "SceneLight_1_matrix",
				"u_SceneLight_1_color": "SceneLight_1_color",
				"u_ambient_light_color": "ambient_light_color",
				"u_DisplacementIntensity": "DisplacementIntensity",
				"u_EmissionGain": "EmissionGain"				
			},
			"states": {
				"enable": [
					2929,
					3042
				],
				"functions": {
					"blendFuncSeparate": [1, 1, 1, 1],
					"depthMask": [false]
				}
			}
		}
	},
	"samplers": {
		"sampler_LINEAR_LINEAR_REPEAT": {
			"magFilter": 9729,
			"minFilter": 9987,
			"wrapS": 10497,
			"wrapT": 10497
		}
	},
	"textures": {
		"texture_c8313697-2563-47fc-832e-290f4c04b901_MainTex": {
			"format": 6408,
			"internalFormat": 6408,
			"sampler": "sampler_LINEAR_LINEAR_REPEAT",
			"source": "image_c8313697-2563-47fc-832e-290f4c04b901_MainTex",
			"target": 3553,
			"type": 5121
		}
	},
	"images": {
		"image_c8313697-2563-47fc-832e-290f4c04b901_MainTex": {
			"uri": "https://www.tiltbrush.com/shaders/brushes/DiamondHull-c8313697-2563-47fc-832e-290f4c04b901/DiamondHull-c8313697-2563-47fc-832e-290f4c04b901-v10.0-MainTex.png"
		}
	},
	"materials": {
		"material_79348357-432d-4746-8e29-0e25c112e3aa": {
			"technique": "technique_79348357-432d-4746-8e29-0e25c112e3aa",
			"values": {
				"SceneLight_0_color": [0.7780392, 0.8156863, 0.9913726, 1],
				"SceneLight_1_color": [0.4282353, 0.4211765, 0.3458824, 1],
				"ambient_light_color": [0.3921569, 0.3921569, 0.3921569, 1],
				"Cutoff": 0.5,
				"Color": [1, 1, 1, 1]				
			},
			"name": "material_79348357-432d-4746-8e29-0e25c112e3aa"
		},
		"material_c8313697-2563-47fc-832e-290f4c04b901": {
			"technique": "technique_c8313697-2563-47fc-832e-290f4c04b901",
			"values": {
				"SceneLight_0_color": [0.7780392, 0.8156863, 0.9913726, 1],
				"SceneLight_1_color": [0.4282353, 0.4211765, 0.3458824, 1],
				"ambient_light_color": [0.3921569, 0.3921569, 0.3921569, 1],
				"MainTex_TexelSize": [0.0078125, 0.0078125, 128, 128],
				"MainTex": "texture_c8313697-2563-47fc-832e-290f4c04b901_MainTex"				
			},
			"name": "material_c8313697-2563-47fc-832e-290f4c04b901"
		},
		"material_f6e85de3-6dcc-4e7f-87fd-cee8c3d25d51": {
			"technique": "technique_f6e85de3-6dcc-4e7f-87fd-cee8c3d25d51",
			"values": {
				"SceneLight_0_color": [0.7780392, 0.8156863, 0.9913726, 1],
				"SceneLight_1_color": [0.4282353, 0.4211765, 0.3458824, 1],
				"ambient_light_color": [0.3921569, 0.3921569, 0.3921569, 1],
				"DisplacementIntensity": 2,
				"EmissionGain": 0.2				
			},
			"name": "material_f6e85de3-6dcc-4e7f-87fd-cee8c3d25d51"
		}
	},
	"nodes": {
		"node_MatteHull_79348357-432d-4746-8e29-0e25c112e3aa_0_0": {
			"name": "node_MatteHull_79348357-432d-4746-8e29-0e25c112e3aa_0_0",
			"meshes": [
				"mesh_MatteHull_79348357-432d-4746-8e29-0e25c112e3aa_0_0"
			],
			"matrix": [1, 0, 0, 0, 0, 1, 0, 0, 0, 0, 1, 0, 0, 0, 0, 1]
		},
		"node_SceneLight_0_-1098": {
			"name": "node_SceneLight_0_-1098",
			"light": "SceneLight_0",
			"matrix": [0.898794, 0.2191856, -0.3796406, 0, -0.4383712, 0.449397, -0.7783785, 0, -1.490116E-08, 0.8660254, 0.4999999, 0, 0.2237309, -0.5974122, -0.5755023, 1]
		},
		"node_SceneLight_1_-1104": {
			"name": "node_SceneLight_1_-1104",
			"light": "SceneLight_1",
			"matrix": [0.7660444, -0.4924039, -0.4131759, 0, -0.6427876, -0.5868242, -0.4924039, 0, 8.940697E-08, 0.6427876, -0.7660446, 0, 0.223731, -0.6114358, -0.6550338, 1]
		},
		"node_DiamondHull_c8313697-2563-47fc-832e-290f4c04b901_0_0": {
			"name": "node_DiamondHull_c8313697-2563-47fc-832e-290f4c04b901_0_0",
			"meshes": [
				"mesh_DiamondHull_c8313697-2563-47fc-832e-290f4c04b901_0_0"
			],
			"matrix": [1, 0, 0, 0, 0, 1, 0, 0, 0, 0, 1, 0, 0, 0, 0, 1]
		},
		"node_Electricity_f6e85de3-6dcc-4e7f-87fd-cee8c3d25d51_0_0": {
			"name": "node_Electricity_f6e85de3-6dcc-4e7f-87fd-cee8c3d25d51_0_0",
			"meshes": [
				"mesh_Electricity_f6e85de3-6dcc-4e7f-87fd-cee8c3d25d51_0_0"
			],
			"matrix": [1, 0, 0, 0, 0, 1, 0, 0, 0, 0, 1, 0, 0, 0, 0, 1]
		}
	},
	"scene": "defaultScene",
	"scenes": {
		"defaultScene": {
			"nodes": [
				"node_MatteHull_79348357-432d-4746-8e29-0e25c112e3aa_0_0",
				"node_SceneLight_0_-1098",
				"node_SceneLight_1_-1104",
				"node_DiamondHull_c8313697-2563-47fc-832e-290f4c04b901_0_0",
				"node_Electricity_f6e85de3-6dcc-4e7f-87fd-cee8c3d25d51_0_0"
			],
			"extras": {
				"TB_EnvironmentGuid": "ab080599-e465-4a6d-8587-43bf495af68b",
				"TB_Environment": "Standard",
				"TB_UseGradient": "true",
				"TB_SkyColorA": "0.2745098, 0.2745098, 0.3176471",
				"TB_SkyColorB": "0.03529412, 0.03529412, 0.08627451",
				"TB_SkyGradientDirection": "0, 1, 0",
				"TB_FogColor": "0.1647059, 0.1647059, 0.2078431",
				"TB_FogDensity": "0.0025",
				"TB_SkyColorHorizon": "0.2745098, 0.2745098, 0.3176471",
				"TB_SkyColorZenith": "0.03529412, 0.03529412, 0.08627451"
			}
		}
	}
}