{
	"asset": {
		"generator": "Blocks 4.0.1_OVR_RC0",
		"version": "1.1",
		"copyright": "Unknown"
	},
	"buffers": {
		"model": {
			"byteLength": 83840,
			"type": "arraybuffer",
			"uri": "model.bin"
		}
	},
	"accessors": {
		"accessor_position_m0-PolyPaper4_-141526": {
			"bufferView": "vec3BufferView",
			"byteOffset": 0,
			"byteStride": 12,
			"componentType": 5126,
			"count": 1952,
			"max": [ 0.6032854, 1.996871, 0.05181941 ],
			"min": [ -0.7655973, 0.6068707, -1.317063 ],
			"type": "VEC3"
		 },
		"accessor_normal_m0-PolyPaper4_-141526": {
			"bufferView": "vec3BufferView",
			"byteOffset": 23424,
			"byteStride": 12,
			"componentType": 5126,
			"count": 1952,
			"max": [ 0.9659266, 1, 0.9659265 ],
			"min": [ -0.9743326, -1, -0.9659259 ],
			"type": "VEC3"
		 },
		"accessor_color_m0-PolyPaper4_-141526": {
			"bufferView": "vec4BufferView",
			"byteOffset": 0,
			"byteStride": 16,
			"componentType": 5126,
			"count": 1952,
			"max": [ 0.2980392, 0.7372549, 0.8313726, 1 ],
			"min": [ 0, 0.6862745, 0.3137255, 1 ],
			"type": "VEC4"
		 },
		"accessor_indices_0_m0-PolyPaper4_-141526": {
			"bufferView": "ushortBufferView",
			"byteOffset": 0,
			"byteStride": 0,
			"componentType": 5123,
			"count": 2880,
			"max": [ 1951 ],
			"min": [ 0 ],
			"type": "SCALAR"
		 }
	},
	"bufferViews": {
		"ushortBufferView": {
			"buffer": "model",
			"byteLength": 5760,
			"byteOffset": 0,
			"target": 34963
		},
		"vec3BufferView": {
			"buffer": "model",
			"byteLength": 46848,
			"byteOffset": 5760,
			"target": 34962
		},
		"vec4BufferView": {
			"buffer": "model",
			"byteLength": 31232,
			"byteOffset": 52608,
			"target": 34962
		}
	},
	"meshes": {
		"mesh_m0-PolyPaper4_-141526": {
			"name": "mesh_m0-PolyPaper4_-141526",
			"primitives": [
				{
					"attributes": {
						"POSITION": "accessor_position_m0-PolyPaper4_-141526",
						"NORMAL": "accessor_normal_m0-PolyPaper4_-141526",
						"COLOR": "accessor_color_m0-PolyPaper4_-141526"
					},
					"indices": "accessor_indices_0_m0-PolyPaper4_-141526",
					"material": "material_mat4",
					"mode": 4
				}
			]
		}
	},
	"shaders": {
		"vertex_mat4": {
			"type": 35633,
			"uri": "https://vr.google.com/shaders/w/vs.glsl"
		},
		"fragment_mat4": {
			"type": 35632,
			"uri": "https://vr.google.com/shaders/w/fs.glsl"
		}
	},
	"programs": {
		"program_mat4": {
			"attributes": [
				"a_position",
				"a_normal",
				"a_color"				
			],
			"vertexShader": "vertex_mat4",
			"fragmentShader": "fragment_mat4"
		}
	},
	"techniques": {
		"technique_mat4": {
			"program": "program_mat4",
			"extras": {"gvrss" : "https://vr.google.com/shaders/w/gvrss/paper.json"},
			"parameters": {
				"position": {
					"type": 35665,
					"semantic": "POSITION"
				},
				"normal": {
					"type": 35665,
					"semantic": "NORMAL"
				},
				"color": {
					"type": 35666,
					"semantic": "COLOR"
				},
				"modelViewMatrix": {
					"type": 35676,
					"semantic": "MODELVIEW"
				},
				"projectionMatrix": {
					"type": 35676,
					"semantic": "PROJECTION"
				},
				"normalMatrix": {
					"type": 35675,
					"semantic": "MODELVIEWINVERSETRANSPOSE"
				},
				"color": {
					"type": 35666
				},
				"roughness": {
					"type": 5126
				},
				"metallic": {
					"type": 5126
				},
				"light0Pos": {
					"type": 35666
				},
				"light0Color": {
					"type": 35666
				},
				"light1Pos": {
					"type": 35666
				},
				"light1Color": {
					"type": 35666
				}				
			},
			"attributes": {
				"a_position": "position",
				"a_normal": "normal",
				"a_color": "color"				
			},
			"uniforms": {
				"u_modelViewMatrix": "modelViewMatrix",
				"u_projectionMatrix": "projectionMatrix",
				"u_normalMatrix": "normalMatrix",
				"u_color": "color",
				"u_roughness": "roughness",
				"u_metallic": "metallic",
				"u_light0Pos": "light0Pos",
				"u_light0Color": "light0Color",
				"u_light1Pos": "light1Pos",
				"u_light1Color": "light1Color"				
			},
			"states": {
				"enable": [
					2929,
					2884
				],
				"functions": {
					"cullFace": [1029]
				}
			}
		}
	},
	"materials": {
		"material_mat4": {
			"technique": "technique_mat4",
			"values": {
				"color": [0, 0.7372549, 0.8313726, 1],
				"roughness": 1,
				"metallic": 0,
				"light0Pos": [-0.02, 4.11, -0.54, 0],
				"light0Color": [1.28, 1.232075, 1.101177, 0],
				"light1Pos": [0.02, -4.11, 0.54, 0],
				"light1Color": [0.2941177, 0.2953672, 0.32, 0]				
			},
			"name": "material_mat4"
		}
	},
	"nodes": {
		"node_MeshObject78010368-PolyPaper4": {
			"name": "node_MeshObject78010368-PolyPaper4",
			"meshes": [
				"mesh_m0-PolyPaper4_-141526"
			],
			"matrix": [1, 0, 0, 0, 0, 1, 0, 0, 0, 0, 1, 0, 0, 0, 0, 1]
		}
	},
	"scene": "defaultScene",
	"scenes": {
		"defaultScene": {
			"nodes": [
				"node_MeshObject78010368-PolyPaper4"
			],
			"extras": {

			}
		}
	}
}